<svg xmlns="http://www.w3.org/2000/svg" width="980" height="620" viewBox="0 0 980 620">
<rect width="100%" height="100%" fill="#fff"/>
<text x="490.0" y="36" text-anchor="middle" font-family="Arial, Helvetica, sans-serif" font-size="24" font-weight="700" fill="#222">TPOT vs Context Length</text>
<text x="490.0" y="60" text-anchor="middle" font-family="Arial, Helvetica, sans-serif" font-size="13" fill="#666">Median inter-token latency, page budget / top-k = 16, 64 decode tokens except 64k stopped at 51</text>
<line x1="90" y1="534.0" x2="936" y2="534.0" stroke="#ddd"/>
<text x="78" y="538.0" text-anchor="end" font-family="Arial" font-size="13" fill="#666">0</text>
<line x1="90" y1="471.3" x2="936" y2="471.3" stroke="#ddd"/>
<text x="78" y="475.3" text-anchor="end" font-family="Arial" font-size="13" fill="#666">50</text>
<line x1="90" y1="408.6" x2="936" y2="408.6" stroke="#ddd"/>
<text x="78" y="412.6" text-anchor="end" font-family="Arial" font-size="13" fill="#666">100</text>
<line x1="90" y1="345.9" x2="936" y2="345.9" stroke="#ddd"/>
<text x="78" y="349.9" text-anchor="end" font-family="Arial" font-size="13" fill="#666">150</text>
<line x1="90" y1="283.2" x2="936" y2="283.2" stroke="#ddd"/>
<text x="78" y="287.2" text-anchor="end" font-family="Arial" font-size="13" fill="#666">200</text>
<line x1="90" y1="220.5" x2="936" y2="220.5" stroke="#ddd"/>
<text x="78" y="224.5" text-anchor="end" font-family="Arial" font-size="13" fill="#666">250</text>
<line x1="90" y1="157.8" x2="936" y2="157.8" stroke="#ddd"/>
<text x="78" y="161.8" text-anchor="end" font-family="Arial" font-size="13" fill="#666">300</text>
<line x1="90" y1="95.1" x2="936" y2="95.1" stroke="#ddd"/>
<text x="78" y="99.1" text-anchor="end" font-family="Arial" font-size="13" fill="#666">350</text>
<line x1="90" y1="534" x2="936" y2="534" stroke="#222"/>
<line x1="90" y1="72" x2="90" y2="534" stroke="#222"/>
<text x="90.0" y="574" text-anchor="middle" font-family="Arial" font-size="14" fill="#222">1k</text>
<text x="231.0" y="574" text-anchor="middle" font-family="Arial" font-size="14" fill="#222">2k</text>
<text x="372.0" y="574" text-anchor="middle" font-family="Arial" font-size="14" fill="#222">4k</text>
<text x="513.0" y="574" text-anchor="middle" font-family="Arial" font-size="14" fill="#222">8k</text>
<text x="654.0" y="574" text-anchor="middle" font-family="Arial" font-size="14" fill="#222">16k</text>
<text x="795.0" y="574" text-anchor="middle" font-family="Arial" font-size="14" fill="#222">32k</text>
<text x="936.0" y="574" text-anchor="middle" font-family="Arial" font-size="14" fill="#222">64k</text>
<polyline points="90.0,340.6 231.0,333.6 372.0,331.3 513.0,321.5 654.0,306.9 795.0,238.0 936.0,132.3" fill="none" stroke="#4C78A8" stroke-width="3"/>
<polyline points="90.0,460.2 231.0,454.1 372.0,455.8 513.0,453.9 654.0,445.5 795.0,429.6 936.0,398.0" fill="none" stroke="#F58518" stroke-width="3"/>
<circle cx="90.0" cy="340.6" r="5" fill="#4C78A8"/>
<text x="90.0" y="330.6" text-anchor="middle" font-family="Arial" font-size="12" fill="#222">154.2</text>
<circle cx="231.0" cy="333.6" r="5" fill="#4C78A8"/>
<text x="231.0" y="323.6" text-anchor="middle" font-family="Arial" font-size="12" fill="#222">159.8</text>
<circle cx="372.0" cy="331.3" r="5" fill="#4C78A8"/>
<text x="372.0" y="321.3" text-anchor="middle" font-family="Arial" font-size="12" fill="#222">161.6</text>
<circle cx="513.0" cy="321.5" r="5" fill="#4C78A8"/>
<text x="513.0" y="311.5" text-anchor="middle" font-family="Arial" font-size="12" fill="#222">169.5</text>
<circle cx="654.0" cy="306.9" r="5" fill="#4C78A8"/>
<text x="654.0" y="296.9" text-anchor="middle" font-family="Arial" font-size="12" fill="#222">181.1</text>
<circle cx="795.0" cy="238.0" r="5" fill="#4C78A8"/>
<text x="795.0" y="228.0" text-anchor="middle" font-family="Arial" font-size="12" fill="#222">236.1</text>
<circle cx="936.0" cy="132.3" r="5" fill="#4C78A8"/>
<text x="936.0" y="122.3" text-anchor="middle" font-family="Arial" font-size="12" fill="#222">320.4</text>
<circle cx="90.0" cy="460.2" r="5" fill="#F58518"/>
<text x="90.0" y="450.2" text-anchor="middle" font-family="Arial" font-size="12" fill="#222">58.9</text>
<circle cx="231.0" cy="454.1" r="5" fill="#F58518"/>
<text x="231.0" y="444.1" text-anchor="middle" font-family="Arial" font-size="12" fill="#222">63.8</text>
<circle cx="372.0" cy="455.8" r="5" fill="#F58518"/>
<text x="372.0" y="445.8" text-anchor="middle" font-family="Arial" font-size="12" fill="#222">62.4</text>
<circle cx="513.0" cy="453.9" r="5" fill="#F58518"/>
<text x="513.0" y="443.9" text-anchor="middle" font-family="Arial" font-size="12" fill="#222">63.9</text>
<circle cx="654.0" cy="445.5" r="5" fill="#F58518"/>
<text x="654.0" y="435.5" text-anchor="middle" font-family="Arial" font-size="12" fill="#222">70.6</text>
<circle cx="795.0" cy="429.6" r="5" fill="#F58518"/>
<text x="795.0" y="419.6" text-anchor="middle" font-family="Arial" font-size="12" fill="#222">83.2</text>
<circle cx="936.0" cy="398.0" r="5" fill="#F58518"/>
<text x="936.0" y="388.0" text-anchor="middle" font-family="Arial" font-size="12" fill="#222">108.5</text>
<text x="22" y="303.0" text-anchor="middle" transform="rotate(-90 22 303.0)" font-family="Arial" font-size="16" fill="#222">Median TPOT (ms/token)</text>
<rect x="355.0" y="596" width="18" height="18" fill="#4C78A8"/><text x="380.0" y="610" font-family="Arial" font-size="14">Default Quest</text>
<rect x="525.0" y="596" width="18" height="18" fill="#F58518"/><text x="550.0" y="610" font-family="Arial" font-size="14">Fused Metal</text>
</svg>